<svg width="24" height="24" viewBox="0 0 24 24" fill="none" xmlns="http://www.w3.org/2000/svg">
<path d="M9 16C9.85 16 10.64 16.25 11.31 16.69L12 17L12.69 16.69C13.36 16.25 14.15 16 15 16C16.66 16 18 17.34 18 19C18 20.66 16.66 22 15 22C14.15 22 13.36 21.75 12.69 21.31L12 21L11.31 21.31C10.64 21.75 9.85 22 9 22C7.34 22 6 20.66 6 19C6 17.34 7.34 16 9 16ZM9.5 2C10.33 2 11 2.67 11 3.5S10.33 5 9.5 5S8 4.33 8 3.5S8.67 2 9.5 2ZM14.5 2C15.33 2 16 2.67 16 3.5S15.33 5 14.5 5S13 4.33 13 3.5S13.67 2 14.5 2ZM12 6C13.66 6 15 7.34 15 9V14H9V9C9 7.34 10.34 6 12 6Z" fill="currentColor"/>
</svg>