<svg width="24" height="24" viewBox="0 0 24 24" fill="none" xmlns="http://www.w3.org/2000/svg">
<path d="M12 2C13.1 2 14 2.9 14 4V12C14 13.1 13.1 14 12 14C10.9 14 10 13.1 10 12V4C10 2.9 10.9 2 12 2ZM18 8C19.1 8 20 8.9 20 10V16C20 17.1 19.1 18 18 18C16.9 18 16 17.1 16 16V10C16 8.9 16.9 8 18 8ZM6 8C7.1 8 8 8.9 8 10V16C8 17.1 7.1 18 6 18C4.9 18 4 17.1 4 16V10C4 8.9 4.9 8 6 8ZM15 4C16.1 4 17 4.9 17 6V14C17 15.1 16.1 16 15 16C13.9 16 13 15.1 13 14V6C13 4.9 13.9 4 15 4ZM9 4C10.1 4 11 4.9 11 6V14C11 15.1 10.1 16 9 16C7.9 16 7 15.1 7 14V6C7 4.9 7.9 4 9 4Z" fill="currentColor"/>
</svg>