<svg width="24" height="24" viewBox="0 0 24 24" fill="none" xmlns="http://www.w3.org/2000/svg">
<path d="M12 2C13.1 2 14 2.9 14 4C14 5.1 13.1 6 12 6C10.9 6 10 5.1 10 4C10 2.9 10.9 2 12 2ZM12 8C15.31 8 18 10.69 18 14C18 17.31 15.31 20 12 20C8.69 20 6 17.31 6 14C6 10.69 8.69 8 12 8ZM12 10C9.79 10 8 11.79 8 14C8 16.21 9.79 18 12 18C14.21 18 16 16.21 16 14C16 11.79 14.21 10 12 10ZM12 12C13.1 12 14 12.9 14 14C14 15.1 13.1 16 12 16C10.9 16 10 15.1 10 14C10 12.9 10.9 12 12 12Z" fill="currentColor"/>
</svg>